# xmcd
#
# Track frame offsets: 
#        150
#        16792
#        43069
#        76011
#        95303
#        119670
#        140772
#        174464
#        198621
#        225073
#        248860
#        274912
#
# Disc length: 4140 seconds
#
# Revision: 2
# Processed by: cddbd v1.5.2PL0 Copyright (c) Steve Scherf et al.
# Submitted via: ExactAudioCopyFreeDBPlugin 1.0
#
DISCID=99102a0c
DTITLE=Miles Davis Quintet - Complete Studio Recordings: The Master Ta
DTITLE=kes [CD 1 of 4)
DYEAR=1956
DGENRE=Jazz
TTITLE0=Two Base Hit
TTITLE1=Ah-leu-cha
TTITLE2=Little Melonae
TTITLE3=Budo
TTITLE4=Stablemates
TTITLE5=How Am I To Know
TTITLE6=Just Squeeze Me
TTITLE7=There Is No Greater Love
TTITLE8=The Theme
TTITLE9=S'posin
TTITLE10=In Your Own Sweet Way
TTITLE11=Diane
EXTD=
EXTT0=
EXTT1=
EXTT2=
EXTT3=
EXTT4=
EXTT5=
EXTT6=
EXTT7=
EXTT8=
EXTT9=
EXTT10=
EXTT11=
PLAYORDER=
